<?xml version="1.0" standalone="no"?><!DOCTYPE svg PUBLIC "-//W3C//DTD SVG 1.1//EN" "http://www.w3.org/Graphics/SVG/1.1/DTD/svg11.dtd"><svg t="1664940123722" class="icon" viewBox="0 0 1024 1024" version="1.1" xmlns="http://www.w3.org/2000/svg" p-id="4169" xmlns:xlink="http://www.w3.org/1999/xlink" width="200" height="200"><path d="M150.665731 173.241637l86.479096 88.604944h549.646471l86.540975-88.60694c11.086347-11.361809 28.296733-12.623345 40.744421-3.786604l4.423361 3.786604c11.086347 11.361809 12.317942 28.999361 3.694783 41.756445l-3.694783 4.53115L831.376218 308.717037l0.005989 158.662113c50.517333 17.749333 94.555322 49.138027 127.630721 89.716772l32.051399 0.007984c17.639548 0 31.937622 14.65338 31.937622 32.730075 0 15.389942-10.361762 28.296733-24.324491 31.795898 15.639454 35.239173 24.324491 74.215049 24.324491 115.206986 0 89.445302-41.34924 169.293349-106.084803 221.683026l1.582909 1.620834c12.471641 12.783033 12.471641 33.506558 0 46.289591a31.392686 31.392686 0 0 1-45.167782 0l-12.210152-12.505575c-37.935906 18.340179-80.538698 28.628086-125.558768 28.628086-58.625497 0-113.154994-17.445926-158.616203-47.40142a312.431782 312.431782 0 0 1-47.664904 6.299696l-17.282246 0.47108c-92.770807 0-176.303657-40.536827-234.653692-105.270394l-126.678581 129.776531c-11.086347 11.361809-28.296733 12.625341-40.744421 3.7886l-4.423361-3.7886c-11.086347-11.361809-12.317942-28.997365-3.694783-41.754449l3.694783-4.533146 133.058121-136.317754C209.40301 774.447407 192.623782 716.540507 192.623782 654.613458v-32.075353l-159.688109 0.027946c-17.639548 0-31.937622-14.655376-31.937622-32.73207 0-18.076694 14.298074-32.730074 31.937622-32.730075l159.688109-0.025949v-248.295049l-87.123837-89.253676c-12.471641-12.783033-12.471641-33.506558 0-46.289591a31.392686 31.392686 0 0 1 45.167782 0zM735.563353 512.998051c-82.648577 0-154.821614 44.848405-193.512047 111.536156l-0.263485 0.455111 0.263485-0.455111c-0.58885 1.014019-1.169715 2.034027-1.742596 3.058027l1.477115-2.602916c-0.564897 0.982082-1.123805 1.970152-1.676726 2.960218l0.199611-0.357302c-0.562901 1.006035-1.117817 2.018058-1.666745 3.034074l1.467134-2.674776c-0.560904 1.006035-1.113825 2.020055-1.660756 3.03607l0.193622-0.359298a222.5154 222.5154 0 0 0-10.453583 22.248546l0.161684-0.39922a221.986433 221.986433 0 0 0-2.68276 6.938448l0.151704-0.413193c-0.419181 1.137778-0.832374 2.281544-1.237583 3.429302l1.085879-3.016109c-0.383251 1.043961-0.760515 2.091914-1.129793 3.14386l0.04591-0.127751a221.834729 221.834729 0 0 0-1.253552 3.672827l0.18963-0.572881c-0.375267 1.119813-0.74255 2.245614-1.099852 3.373411l0.910222-2.80053c-0.367283 1.10584-0.726581 2.215673-1.077894 3.329497l0.167672-0.526971c-0.347322 1.09586-0.686659 2.195712-1.018012 3.299556l0.852336-2.774581c-0.359298 1.145762-0.710612 2.295517-1.053942 3.447267l0.19961-0.672686c-0.349318 1.169715-0.690651 2.341427-1.022004 3.519126l0.822394-2.84644c-0.329357 1.109832-0.648733 2.223657-0.962121 3.339477l0.139727-0.493037a221.826745 221.826745 0 0 0-0.958128 3.499166l0.818401-3.006129c-0.299415 1.067914-0.58885 2.137825-0.872296 3.213723l0.053895-0.207594a222.032343 222.032343 0 0 0-2.568983 10.798908l0.125755-0.586854c-0.257497 1.197661-0.505014 2.395322-0.74255 3.598971l0.616795-3.012117c-0.24552 1.157739-0.479064 2.315478-0.70662 3.477209l0.089825-0.465092a222.673092 222.673092 0 0 0-1.363337 7.605146l0.103797-0.640748c-0.19961 1.217622-0.391236 2.441232-0.570885 3.666838l0.467088-3.02609c-0.185637 1.145762-0.361294 2.295517-0.528967 3.447268l0.059883-0.419182a223.623236 223.623236 0 0 0-0.972101 7.473404l0.043914-0.393232A225.297965 225.297965 0 0 0 512 736.561404a227.69129 227.69129 0 0 0 0.123758 7.515321l-0.013972-0.451119c0.039922 1.271517 0.089825 2.539041 0.149707 3.804569l-0.135735-3.35345c0.039922 1.217622 0.089825 2.429255 0.149708 3.640889l-0.013973-0.287439a225.08039 225.08039 0 0 0 1.229599 15.076554l-0.079844-0.690651a223.671142 223.671142 0 0 0 1.002042 7.694971 223.110238 223.110238 0 0 0 1.804476 10.477536l-0.069863-0.357302c0.215579 1.113825 0.441138 2.223657 0.674682 3.329497l-0.604819-2.974191c0.23554 1.203649 0.48106 2.40131 0.738558 3.596974l-0.133739-0.622783a222.0543 222.0543 0 0 0 2.614893 10.990534l-0.139728-0.522979c0.3074 1.167719 0.622784 2.331446 0.948149 3.493178l-0.808421-2.970199c0.299415 1.137778 0.610807 2.271563 0.930183 3.403353l-0.121762-0.433154c0.309396 1.107836 0.626776 2.21168 0.954136 3.313528l-0.832374-2.880374c0.329357 1.169715 0.668694 2.335439 1.018012 3.499165l-0.185638-0.618791c0.339337 1.145762 0.688655 2.285536 1.045957 3.423314l-0.862316-2.804523c0.337341 1.121809 0.682667 2.239626 1.035977 3.353451l-0.173661-0.548928c0.361294 1.15175 0.732569 2.301505 1.113825 3.445271l-0.940164-2.896343c0.345326 1.093864 0.700632 2.185731 1.065918 3.273606l-0.125754-0.379259a221.846706 221.846706 0 0 0 2.379353 6.794729l1.213629 3.215719a222.020366 222.020366 0 0 0 1.353357 3.417326l-0.177653-0.439143c0.423173 1.047953 0.852335 2.091914 1.289481 3.133879l-1.111828-2.694736c0.441138 1.087875 0.890261 2.171758 1.349364 3.251649l-0.237536-0.558909C563.269864 903.655049 642.824483 960.124756 735.563353 960.124756c123.470846 0 223.563353-100.092507 223.563353-223.563352s-100.092507-223.563353-223.563353-223.563353z m31.937622-185.691322H256.499025v327.308725c0 48.461349 12.80499 94.836772 36.708304 135.317708l13.421786 22.731602 17.637552 19.567782c48.114027 53.379743 115.434542 84.227493 187.733333 84.227493l0.021957 0.003992C472.060008 867.387883 448.124756 804.891945 448.124756 736.834869c0-47.223766 11.525489-91.772756 31.935626-131.018105l0.001996-129.05993c0-17.637552 14.298074-31.937622 31.937622-31.937622s31.937622 14.30007 31.937622 31.937622l-0.005988 47.119969C594.784312 478.631173 661.941146 451.118908 735.563353 451.118908c10.798908 0 21.454097 0.590846 31.94361 1.744593l-0.005988-125.554776zM512 0c88.910347 0 168.500897 66.112873 189.428023 164.372959 1.465138 6.655002 2.197708 11.870815 2.197708 15.645443 0 19.641637-15.264187 35.610448-32.915712 35.997692l-316.761325 0.005988c-17.930979 0-33.574425-16.118519-33.574425-36.00368l0.093817-3.30754c15.968811-96.507509 89.808593-170.576842 180.156132-176.347572L512 0z m0 65.462144c-50.716943 0-96.403712 33.923743-117.909708 85.09979l236.384312 0.005988-4.581052-10.112249C603.016234 94.455517 559.587057 65.462144 512 65.462144z" p-id="4170"></path><path d="M735.563353 576.873294c17.639548 0 31.937622 14.298074 31.937622 31.937622v95.812866h95.812865c17.639548 0 31.937622 14.298074 31.937622 31.937622s-14.298074 31.937622-31.937622 31.937621h-95.812865v95.812866c0 17.639548-14.298074 31.937622-31.937622 31.937622s-31.937622-14.298074-31.937622-31.937622v-95.812866h-95.812866c-17.639548 0-31.937622-14.298074-31.937621-31.937621s14.298074-31.937622 31.937621-31.937622h95.812866v-95.812866c0-17.639548 14.298074-31.937622 31.937622-31.937622z" p-id="4171"></path></svg>